<svg width="40" height="40" viewBox="0 0 40 40" fill="none" xmlns="http://www.w3.org/2000/svg">
  <rect x="8" y="16" width="16" height="16" rx="2" fill="#D4A574" stroke="#8B4513" stroke-width="1"/>
  <rect x="8" y="12" width="16" height="8" rx="1" fill="#E6C6A0" stroke="#8B4513" stroke-width="1"/>
  <line x1="8" y1="16" x2="24" y2="16" stroke="#8B4513" stroke-width="1"/>
  <line x1="16" y1="12" x2="16" y2="20" stroke="#8B4513" stroke-width="1"/>
  <ellipse cx="18" cy="10" rx="6" ry="4" fill="#4CAF50" transform="rotate(-20 18 10)"/>
  <ellipse cx="18" cy="10" rx="4" ry="2.5" fill="#66BB6A" transform="rotate(-20 18 10)"/>
  <ellipse cx="14" cy="8" rx="5" ry="3" fill="#388E3C" transform="rotate(-45 14 8)"/>
  <ellipse cx="14" cy="8" rx="3" ry="2" fill="#4CAF50" transform="rotate(-45 14 8)"/>
  <path d="M16 12 Q15 10 14 8" stroke="#2E7D32" stroke-width="1.5" fill="none"/>
  <path d="M16 12 Q17 10 18 10" stroke="#2E7D32" stroke-width="1.5" fill="none"/>
  <rect x="9" y="13" width="6" height="2" rx="1" fill="#F5DEB3" opacity="0.7"/>
</svg> 